<svg xmlns="http://www.w3.org/2000/svg" xmlns:xlink="http://www.w3.org/1999/xlink" viewBox="0 0 430 430" width="430" height="430" preserveAspectRatio="xMidYMid meet" style="width: 100%; height: 100%; transform: translate3d(0px, 0px, 0px); content-visibility: visible;"><defs><clipPath id="__lottie_element_59"><rect width="430" height="430" x="0" y="0"/></clipPath><clipPath id="__lottie_element_61"><path d="M0,0 L430,0 L430,430 L0,430z"/></clipPath><filter id="__lottie_element_67" x="-100%" y="-100%" width="300%" height="300%"><feGaussianBlur result="filter_result_0" stdDeviation="52.5 52.5" edgeMode="wrap"/></filter><g id="__lottie_element_68"><g clip-path="url(#__lottie_element_69)" transform="matrix(1,0,0,1,0,0)" opacity="1" style="display: block;"><g transform="matrix(1,0,0,1,335.20001220703125,95)" opacity="1" style="display: block;"><g opacity="0" transform="matrix(1,0,0,1,0,0)"><path stroke-linecap="round" stroke-linejoin="round" fill-opacity="0" class="secondary" stroke="rgb(8,168,138)" stroke-opacity="1" stroke-width="12" d=" M85.80000305175781,14.940999984741211 C82.77999877929688,-9.763999938964844 71.66300201416016,-33.78300094604492 52.722999572753906,-52.722999572753906 C33.78300094604492,-71.8010025024414 9.763999938964844,-82.78099822998047 -14.940999984741211,-85.80000305175781"/></g><g opacity="0" transform="matrix(1,0,0,1,0,0)"><path stroke-linecap="round" stroke-linejoin="round" fill-opacity="0" class="secondary" stroke="rgb(8,168,138)" stroke-opacity="1" stroke-width="12" d=" M81,17.885000228881836 C78.16300201416016,-6.429999828338623 67.42400360107422,-30.13800048828125 48.58000183105469,-48.779998779296875 C29.736000061035156,-67.4219970703125 6.230000019073486,-78.16100311279297 -18.084999084472656,-81.19999694824219"/></g></g><g transform="matrix(-1,0,0,-1,95,335.20001220703125)" opacity="1" style="display: block;"><g opacity="0" transform="matrix(1,0,0,1,0,0)"><path stroke-linecap="round" stroke-linejoin="round" fill-opacity="0" class="secondary" stroke="rgb(8,168,138)" stroke-opacity="1" stroke-width="12" d=" M85.80000305175781,14.940999984741211 C82.77999877929688,-9.763999938964844 71.66300201416016,-33.78300094604492 52.722999572753906,-52.722999572753906 C33.78300094604492,-71.8010025024414 9.763999938964844,-82.78099822998047 -14.940999984741211,-85.80000305175781"/></g><g opacity="0" transform="matrix(1,0,0,1,0,0)"><path stroke-linecap="round" stroke-linejoin="round" fill-opacity="0" class="secondary" stroke="rgb(8,168,138)" stroke-opacity="1" stroke-width="12" d=" M81,17.885000228881836 C78.16300201416016,-6.429999828338623 67.42400360107422,-30.13800048828125 48.58000183105469,-48.779998779296875 C29.736000061035156,-67.4219970703125 6.230000019073486,-78.16100311279297 -18.084999084472656,-81.19999694824219"/></g></g><g transform="matrix(1,0,0,1,335.20001220703125,95)" opacity="1" style="display: block;"><g opacity="1" transform="matrix(1,0,0,1,0,0)"><path stroke-linecap="round" stroke-linejoin="round" fill-opacity="0" class="secondary" stroke="rgb(8,168,138)" stroke-opacity="1" stroke-width="12" d=" M40,33.400001525878906 C37.79999923706055,15.399999618530273 29.700000762939453,-2.0999999046325684 15.899999618530273,-15.899999618530273 C2.0999999046325684,-29.799999237060547 -15.399999618530273,-37.79999923706055 -33.400001525878906,-40 M8.899999618530273,40 C7.5,28 2.200000047683716,16.299999237060547 -7.099999904632568,7.099999904632568 C-16.399999618530273,-2.0999999046325684 -28,-7.400000095367432 -40,-8.899999618530273"/></g></g><g transform="matrix(-1,0,0,-1,95,335.20001220703125)" opacity="1" style="display: block;"><g opacity="1" transform="matrix(1,0,0,1,0,0)"><path stroke-linecap="round" stroke-linejoin="round" fill-opacity="0" class="secondary" stroke="rgb(8,168,138)" stroke-opacity="1" stroke-width="12" d=" M40,33.400001525878906 C37.79999923706055,15.399999618530273 29.700000762939453,-2.0999999046325684 15.899999618530273,-15.899999618530273 C2.0999999046325684,-29.799999237060547 -15.399999618530273,-37.79999923706055 -33.400001525878906,-40 M8.899999618530273,40 C7.5,28 2.200000047683716,16.299999237060547 -7.099999904632568,7.099999904632568 C-16.399999618530273,-2.0999999046325684 -28,-7.400000095367432 -40,-8.899999618530273"/></g></g><g transform="matrix(0.7071067690849304,-0.7071067690849304,0.7071067690849304,0.7071067690849304,205.3760986328125,221.27882385253906)" opacity="1" style="display: block;"><g opacity="1" transform="matrix(1,0,0,1,0,0)"><path stroke-linecap="round" stroke-linejoin="round" fill-opacity="0" class="primary" stroke="rgb(18,19,49)" stroke-opacity="1" stroke-width="12" d=" M27.259000778198242,-138.2220001220703 C27.259000778198242,-144.16200256347656 29.733999252319336,-149.60699462890625 33.62300109863281,-153.49600219726562 C37.512001037597656,-157.38499450683594 42.95600128173828,-159.86000061035156 48.895999908447266,-159.86000061035156 C59.50299835205078,-159.86000061035156 68.19999694824219,-151.16299438476562 68.19999694824219,-140.55599975585938 C68.19999694824219,-140.55599975585938 68.19999694824219,-100.97699737548828 68.19999694824219,-81.18800354003906 C68.19999694824219,-51.99800109863281 68.19999694824219,6.38100004196167 68.19999694824219,6.38100004196167 M27.259000778198242,-17.30699920654297 C27.259000778198242,-17.30699920654297 27.259000778198242,-69.22799682617188 27.259000778198242,-95.18800354003906 C27.259000778198242,-109.53299713134766 27.259000778198242,-138.2220001220703 27.259000778198242,-138.2220001220703 C27.259000778198242,-138.2220001220703 27.329999923706055,-161.2030029296875 27.329999923706055,-161.2030029296875 C27.329999923706055,-172.51699829101562 18.13800048828125,-181.70899963378906 6.823999881744385,-181.70899963378906 C1.1670000553131104,-181.70899963378906 -3.9240000247955322,-179.44700622558594 -7.671999931335449,-175.69900512695312 C-11.420000076293945,-171.9510040283203 -13.682999610900879,-166.86000061035156 -13.682999610900879,-161.2030029296875 C-13.682999610900879,-161.2030029296875 -13.682000160217285,-144.09100341796875 -13.682000160217285,-144.09100341796875 M-54.624000549316406,-17.30699920654297 C-54.624000549316406,-17.30699920654297 -54.624000549316406,-36.823001861572266 -54.624000549316406,-36.823001861572266 C-54.624000549316406,-36.823001861572266 -54.64799880981445,-66.06700134277344 -54.6619987487793,-80.68800354003906 C-54.67100143432617,-89.89600372314453 -54.69499969482422,-108.31199645996094 -54.69499969482422,-108.31199645996094 C-54.624000549316406,-119.55500030517578 -63.816001892089844,-128.7469940185547 -75.12999725341797,-128.7469940185547 C-80.78700256347656,-128.7469940185547 -85.9489974975586,-126.41400146484375 -89.6259994506836,-122.73699951171875 C-93.3740005493164,-118.98899841308594 -95.63600158691406,-113.89800262451172 -95.63600158691406,-108.24099731445312 C-95.63600158691406,-108.24099731445312 -95.63600158691406,-85.20600128173828 -95.63600158691406,-73.68800354003906 C-95.63600158691406,-54.89400100708008 -95.63600158691406,-17.30699920654297 -95.63600158691406,-17.30699920654297 M-13.682000160217285,-17.378000259399414 C-13.682000160217285,-17.378000259399414 -13.682000160217285,-68.2509994506836 -13.682000160217285,-93.68800354003906 C-13.682000160217285,-110.48899841308594 -13.682000160217285,-144.09100341796875 -13.682000160217285,-144.09100341796875 C-13.682000160217285,-154.697998046875 -22.378999710083008,-163.39500427246094 -32.986000061035156,-163.39500427246094 C-38.92599868774414,-163.39500427246094 -44.37099838256836,-160.9199981689453 -48.2599983215332,-157.031005859375 C-52.14899826049805,-153.14199829101562 -54.624000549316406,-147.697998046875 -54.624000549316406,-141.75799560546875 C-54.624000549316406,-141.75799560546875 -54.448001861572266,-109.322998046875 -54.448001861572266,-109.322998046875 M-95.56500244140625,-17.378000259399414 C-95.56500244140625,-2.953000068664551 -95.56500244140625,18.26099967956543 -95.56500244140625,40.88800048828125 C-95.63600158691406,82.3949966430664 -69.33200073242188,109.97200012207031 -69.33200073242188,109.97200012207031 C-69.33200073242188,109.97200012207031 -69.33200073242188,148.156005859375 -69.33200073242188,148.156005859375 C-69.33200073242188,148.156005859375 62.26100158691406,148.2270050048828 62.26100158691406,148.2270050048828 C62.26100158691406,148.2270050048828 62.26100158691406,110.04299926757812 62.26100158691406,110.04299926757812 C87.78800201416016,93.28500366210938 106.24299621582031,67.9000015258789 114.30400085449219,38.48400115966797 C114.30400085449219,38.48400115966797 130.99200439453125,-22.89299964904785 130.99200439453125,-22.89299964904785 C132.33599853515625,-28.05500030517578 130.85000610351562,-33.35900115966797 127.24400329589844,-36.96500015258789 C125.68800354003906,-38.520999908447266 123.70899963378906,-39.792999267578125 121.44599914550781,-40.5 C109.9520034790039,-44.2760009765625 97.9469985961914,-42.03799819946289 88.802001953125,-35.55699920654297 C82.36399841308594,-30.993999481201172 77.34300231933594,-24.32699966430664 74.91799926757812,-16.176000595092773 C74.91799926757812,-16.176000595092773 68.19999694824219,6.38100004196167 68.19999694824219,6.38100004196167"/></g></g></g></g><clipPath id="__lottie_element_69"><path d="M0,0 L430,0 L430,430 L0,430z"/></clipPath><mask id="__lottie_element_68_1" mask-type="alpha"><use xmlns:ns1="http://www.w3.org/1999/xlink" ns1:href="#__lottie_element_68"/></mask></defs><g clip-path="url(#__lottie_element_59)"><g clip-path="url(#__lottie_element_61)" transform="matrix(1,0,0,1,0,0)" opacity="1" style="display: block;"><g mask="url(#__lottie_element_68_1)" style="display: block;"><g filter="url(#__lottie_element_67)" transform="matrix(-0.1674155443906784,-2.3941538333892822,2.3941538333892822,-0.1674155443906784,271.9410095214844,220.4600067138672)" opacity="1"><g class="design" opacity="1" transform="matrix(1,0,0,1,0,0)"><path class="primary" fill="rgb(75,225,236)" fill-opacity="1" d=" M0,-250 C137.97500610351562,-250 250,-137.97500610351562 250,0 C250,137.97500610351562 137.97500610351562,250 0,250 C-137.97500610351562,250 -250,137.97500610351562 -250,0 C-250,-137.97500610351562 -137.97500610351562,-250 0,-250z"/></g><g class="design" opacity="1" transform="matrix(1,0,0,1,113.24199676513672,-118.88400268554688)"><path class="secondary" fill="rgb(203,94,238)" fill-opacity="1" d=" M0,-176.5 C97.47799682617188,-176.5 176.5,-97.47799682617188 176.5,0 C176.5,97.47799682617188 97.47799682617188,176.5 0,176.5 C-43.948001861572266,176.5 -74.39600372314453,142.4429931640625 -105.29000091552734,115.86900329589844 C-142.92100524902344,83.5 -176.5,53.53099822998047 -176.5,0 C-176.5,-97.47799682617188 -97.47799682617188,-176.5 0,-176.5z"/></g></g></g></g></g></svg>